<svg width="239" height="50" viewBox="0 0 239 50" fill="none" xmlns="http://www.w3.org/2000/svg">
  <g clip-path="url(#clip0_225_15)">
    <g clip-path="url(#clip1_225_15)">
      <mask id="mask0_225_15" style="mask-type:luminance" maskUnits="userSpaceOnUse" x="0" y="0" width="50" height="50">
        <path d="M50 0H0V50H50V0Z" fill="white"/>
      </mask>
      <g mask="url(#mask0_225_15)">
        <path fill-rule="evenodd" clip-rule="evenodd" d="M12.5 0H50V12.5V37.5L37.5 50V12.5H0L12.5 0ZM0 41.2668V25H16.2668L0 41.2668ZM25 50H8.94444L25 33.9445V50Z" fill="url(#paint0_linear_225_15)"/>
      </g>
    </g>
    <path d="M104.339 50.49C99.7188 50.49 95.4721 49.4167 91.5988 47.27C87.7721 45.1233 84.7155 42.1367 82.4288 38.31C80.1888 34.4367 79.0688 30.0967 79.0688 25.29C79.0688 20.4833 80.1888 16.1667 82.4288 12.34C84.7155 8.51333 87.7721 5.52667 91.5988 3.38C95.4721 1.23333 99.7188 0.159999 104.339 0.159999C108.959 0.159999 113.182 1.23333 117.009 3.38C120.882 5.52667 123.915 8.51333 126.109 12.34C128.349 16.1667 129.469 20.4833 129.469 25.29C129.469 30.0967 128.349 34.4367 126.109 38.31C123.869 42.1367 120.835 45.1233 117.009 47.27C113.182 49.4167 108.959 50.49 104.339 50.49ZM104.339 39.57C108.259 39.57 111.385 38.2633 113.719 35.65C116.099 33.0367 117.289 29.5833 117.289 25.29C117.289 20.95 116.099 17.4967 113.719 14.93C111.385 12.3167 108.259 11.01 104.339 11.01C100.372 11.01 97.1988 12.2933 94.8188 14.86C92.4855 17.4267 91.3188 20.9033 91.3188 25.29C91.3188 29.63 92.4855 33.1067 94.8188 35.72C97.1988 38.2867 100.372 39.57 104.339 39.57ZM134.098 25.36C134.098 20.5067 135.148 16.19 137.248 12.41C139.348 8.58333 142.265 5.62 145.998 3.52C149.778 1.37333 154.048 0.299997 158.808 0.299997C164.641 0.299997 169.635 1.84 173.788 4.92C177.941 8 180.718 12.2 182.118 17.52H168.958C167.978 15.4667 166.578 13.9033 164.758 12.83C162.985 11.7567 160.955 11.22 158.668 11.22C154.981 11.22 151.995 12.5033 149.708 15.07C147.421 17.6367 146.278 21.0667 146.278 25.36C146.278 29.6533 147.421 33.0833 149.708 35.65C151.995 38.2167 154.981 39.5 158.668 39.5C160.955 39.5 162.985 38.9633 164.758 37.89C166.578 36.8167 167.978 35.2533 168.958 33.2H182.118C180.718 38.52 177.941 42.72 173.788 45.8C169.635 48.8333 164.641 50.35 158.808 50.35C154.048 50.35 149.778 49.3 145.998 47.2C142.265 45.0533 139.348 42.09 137.248 38.31C135.148 34.53 134.098 30.2133 134.098 25.36ZM235.578 0.859998L218.148 50H203.168L185.738 0.859998H198.478L210.658 37.96L222.908 0.859998H235.578Z" fill="white"/>
  </g>
  <defs>
    <linearGradient id="paint0_linear_225_15" x1="25" y1="0" x2="25" y2="50" gradientUnits="userSpaceOnUse">
      <stop stop-color="#FF862F"/>
      <stop offset="1" stop-color="#3E18D9"/>
    </linearGradient>
    <clipPath id="clip0_225_15">
      <rect width="239" height="50" fill="white"/>
    </clipPath>
    <clipPath id="clip1_225_15">
      <rect width="50" height="50" fill="white"/>
    </clipPath>
  </defs>
</svg>
